<svg width="45" height="45" fill="none" xmlns="http://www.w3.org/2000/svg"><path d="M22.5 45C34.926 45 45 34.926 45 22.5S34.926 0 22.5 0 0 10.074 0 22.5 10.074 45 22.5 45z" fill="#4D76A1"/><path fill-rule="evenodd" clip-rule="evenodd" d="M21.65 32.368h1.766s.534-.058.806-.352c.25-.27.243-.776.243-.776s-.035-2.37 1.065-2.718c1.084-.344 2.476 2.29 3.952 3.303 1.116.766 1.963.598 1.963.598l3.946-.055s2.064-.127 1.085-1.75c-.08-.132-.57-1.2-2.933-3.394-2.474-2.296-2.143-1.925.837-5.897 1.815-2.419 2.54-3.896 2.314-4.528-.216-.602-1.551-.443-1.551-.443l-4.442.027s-.33-.044-.574.102c-.239.143-.392.476-.392.476s-.703 1.872-1.641 3.464c-1.978 3.36-2.77 3.537-3.092 3.328-.752-.486-.565-1.953-.565-2.995 0-3.255.494-4.612-.961-4.964-.483-.116-.838-.193-2.073-.206-1.585-.016-2.927.005-3.687.377-.505.248-.895.8-.657.83.293.04.958.18 1.31.66.456.62.44 2.01.44 2.01s.261 3.832-.611 4.308c-.599.327-1.42-.34-3.184-3.387-.903-1.561-1.586-3.287-1.586-3.287s-.131-.322-.366-.494c-.285-.21-.682-.276-.682-.276l-4.222.028s-.634.017-.866.293c-.207.245-.017.752-.017.752s3.305 7.732 7.047 11.628c3.432 3.573 7.328 3.338 7.328 3.338z" fill="#fff"/></svg>